<svg width="44" height="44" viewBox="0 0 44 44" fill="none" xmlns="http://www.w3.org/2000/svg">
<path d="M27.5 38.5V23.8333C27.5 23.3471 27.3068 22.8808 26.963 22.537C26.6192 22.1932 26.1529 22 25.6667 22H18.3333C17.8471 22 17.3808 22.1932 17.037 22.537C16.6932 22.8808 16.5 23.3471 16.5 23.8333V38.5" stroke="black" stroke-width="4.58333" stroke-linecap="round" stroke-linejoin="round"/>
<path d="M5.5 18.3336C5.49987 17.8002 5.61611 17.2732 5.84061 16.7894C6.06511 16.3055 6.39246 15.8765 6.79983 15.5322L19.6332 4.53223C20.295 3.97289 21.1335 3.66602 22 3.66602C22.8665 3.66602 23.705 3.97289 24.3668 4.53223L37.2002 15.5322C37.6075 15.8765 37.9349 16.3055 38.1594 16.7894C38.3839 17.2732 38.5001 17.8002 38.5 18.3336V34.8336C38.5 35.806 38.1137 36.7387 37.4261 37.4263C36.7384 38.1139 35.8058 38.5002 34.8333 38.5002H9.16667C8.19421 38.5002 7.26158 38.1139 6.57394 37.4263C5.88631 36.7387 5.5 35.806 5.5 34.8336V18.3336Z" stroke="black" stroke-width="4.58333" stroke-linecap="round" stroke-linejoin="round"/>
</svg>
