<svg width="683" height="683" viewBox="0 0 683 683" fill="none" xmlns="http://www.w3.org/2000/svg">
<g opacity="0.75">
<path d="M426.8 682.879L341.44 682.879C341.44 635.736 379.657 597.519 426.8 597.519L426.8 682.879Z" fill="black"/>
<path d="M426.8 682.879L426.8 597.519C473.943 597.519 512.16 635.736 512.16 682.879L426.8 682.879Z" fill="black"/>
<path d="M426.8 512.159L512.16 512.159C512.16 559.302 473.943 597.519 426.8 597.519L426.8 512.159Z" fill="black"/>
<path d="M426.8 512.159L426.8 597.519C379.657 597.519 341.44 559.302 341.44 512.159L426.8 512.159Z" fill="black"/>
<path d="M512.166 597.519L512.166 512.159C559.309 512.159 597.526 550.376 597.526 597.519L512.166 597.519Z" fill="black"/>
<path d="M682.886 597.519L682.886 682.879C635.743 682.879 597.526 644.662 597.526 597.519L682.886 597.519Z" fill="black"/>
<path d="M597.526 597.519L597.526 682.879C550.383 682.879 512.166 644.662 512.166 597.519L597.526 597.519Z" fill="black"/>
<path d="M597.526 597.519L597.526 512.159C644.669 512.159 682.886 550.376 682.886 597.519L597.526 597.519Z" fill="black"/>
<path d="M426.806 426.799L426.806 341.439C473.949 341.439 512.166 379.656 512.166 426.799L426.806 426.799Z" fill="#0B55C3"/>
<path d="M426.806 512.159L341.446 512.159C341.446 465.016 379.663 426.799 426.806 426.799L426.806 512.159Z" fill="#0B55C3"/>
<path d="M426.806 341.439L426.806 426.799C379.663 426.799 341.446 388.582 341.446 341.439L426.806 341.439Z" fill="#0B55C3"/>
<path d="M426.806 426.799L512.166 426.799C512.166 473.943 473.949 512.159 426.806 512.159L426.806 426.799Z" fill="#0B55C3"/>
<path d="M170.721 597.519L170.721 512.159C217.864 512.159 256.081 550.376 256.081 597.519L170.721 597.519Z" fill="black"/>
<path d="M256.081 597.519L256.081 512.159C303.224 512.159 341.441 550.376 341.441 597.519L256.081 597.519Z" fill="black"/>
<path d="M256.081 597.519L341.441 597.519C341.441 644.662 303.224 682.879 256.081 682.879L256.081 597.519Z" fill="black"/>
<path d="M170.721 597.519L256.081 597.519C256.081 644.662 217.864 682.879 170.721 682.879L170.721 597.519Z" fill="black"/>
<path d="M85.3611 597.52L85.3611 682.88C38.218 682.88 0.00105453 644.663 0.00105659 597.52L85.3611 597.52Z" fill="black"/>
<path d="M85.3611 597.52L0.00105659 597.52C0.00105865 550.377 38.218 512.16 85.3611 512.16L85.3611 597.52Z" fill="black"/>
<path d="M170.721 512.16L170.721 597.52C123.578 597.52 85.3611 559.303 85.3611 512.16L170.721 512.16Z" fill="black"/>
<path d="M170.721 682.88L85.3611 682.88C85.3611 635.737 123.578 597.52 170.721 597.52L170.721 682.88Z" fill="black"/>
<path d="M341.441 426.799L256.081 426.8C256.081 379.656 294.298 341.439 341.441 341.439L341.441 426.799Z" fill="#0B55C3"/>
<path d="M256.081 512.16L256.081 426.8C303.224 426.8 341.441 465.016 341.441 512.16L256.081 512.16Z" fill="#0B55C3"/>
<path d="M170.721 426.799L256.081 426.8C256.081 473.943 217.864 512.16 170.721 512.16L170.721 426.799Z" fill="#0B55C3"/>
<path d="M256.081 341.439L256.081 426.8C208.938 426.8 170.721 388.583 170.721 341.439L256.081 341.439Z" fill="#0B55C3"/>
<path d="M84.7995 426.639V341.279C131.943 341.279 170.16 379.496 170.16 426.639H84.7995Z" fill="#0B55C3"/>
<path d="M84.7995 511.999V426.639C131.943 426.639 170.16 464.856 170.16 511.999H84.7995Z" fill="#0B55C3"/>
<path d="M-0.560547 426.639H84.7995C84.7995 473.782 46.5825 511.999 -0.560547 511.999V426.639Z" fill="#0B55C3"/>
<path d="M84.7995 426.639H-0.560547C-0.560543 379.496 37.6565 341.279 84.7995 341.279V426.639Z" fill="#0B55C3"/>
<path d="M256.081 256.079L256.081 170.719C303.224 170.719 341.441 208.936 341.441 256.079L256.081 256.079Z" fill="#1D81C4"/>
<path d="M256.081 256.079L341.441 256.079C341.441 303.222 303.224 341.439 256.081 341.439L256.081 256.079Z" fill="#1D81C4"/>
<path d="M256.081 256.079L256.081 341.439C208.938 341.439 170.721 303.222 170.721 256.079L256.081 256.079Z" fill="#1D81C4"/>
<path d="M256.081 256.079L170.721 256.079C170.721 208.936 208.938 170.719 256.081 170.719L256.081 256.079Z" fill="#1D81C4"/>
<path d="M-0.439453 341.722L-0.439461 256.362C46.7036 256.362 84.9206 294.579 84.9206 341.722L-0.439453 341.722Z" fill="#1D81C4"/>
<path d="M-0.439468 171.002L84.9205 171.002C84.9205 218.145 46.7036 256.362 -0.439461 256.362L-0.439468 171.002Z" fill="#1D81C4"/>
<path d="M84.9206 341.722L84.9205 256.362C132.064 256.362 170.281 294.579 170.281 341.722L84.9206 341.722Z" fill="#1D81C4"/>
<path d="M84.9205 171.002L170.281 171.002C170.281 218.145 132.064 256.362 84.9205 256.362L84.9205 171.002Z" fill="#1D81C4"/>
<path d="M85.3599 0L170.72 0C170.72 47.143 132.503 85.36 85.3599 85.36L85.3599 0Z" fill="#F37E2E"/>
<path d="M85.3599 170.72L-0.00016005 170.72C-0.00015799 123.577 38.2168 85.36 85.3599 85.36L85.3599 170.72Z" fill="#F37E2E"/>
<path d="M85.3599 85.36L-0.000156319 85.36C-0.000154258 38.217 38.2168 -4.12139e-06 85.3599 0L85.3599 85.36Z" fill="#F37E2E"/>
<path d="M85.3599 85.36L170.72 85.36C170.72 132.503 132.503 170.72 85.3599 170.72L85.3599 85.36Z" fill="#F37E2E"/>
</g>
</svg>
