<svg width="855" height="171" viewBox="0 0 855 171" fill="none" xmlns="http://www.w3.org/2000/svg">
<g opacity="0.75">
<path d="M170.999 171.001L170.999 85.5008C218.219 85.5008 256.499 123.78 256.499 171.001L170.999 171.001Z" fill="#0B55C3"/>
<path d="M256.499 85.5008L170.999 85.5008C170.999 38.2806 209.279 0.000968697 256.499 0.000972825L256.499 85.5008Z" fill="#0B55C3"/>
<path d="M341.999 0.000981909L341.999 85.5008C294.779 85.5008 256.499 47.2212 256.499 0.000972825L341.999 0.000981909Z" fill="#0B55C3"/>
<path d="M256.499 85.5008L341.999 85.5008C341.999 132.721 303.719 171.001 256.499 171.001L256.499 85.5008Z" fill="#0B55C3"/>
<path d="M171 85.5021L171 171.002C123.779 171.002 85.4999 132.722 85.4999 85.5021L171 85.5021Z" fill="black"/>
<path d="M85.4999 85.5021L85.4999 171.002C38.2796 171.002 4.24299e-05 132.722 3.83017e-05 85.5021L85.4999 85.5021Z" fill="black"/>
<path d="M85.4999 85.5021L3.83017e-05 85.5021C3.41736e-05 38.2819 38.2796 0.00231568 85.4999 0.00231155L85.4999 85.5021Z" fill="black"/>
<path d="M171 85.5021L85.4999 85.5021C85.4999 38.2819 123.779 0.00230821 171 0.00230408L171 85.5021Z" fill="black"/>
<path d="M427.499 85.5012L427.499 171.001C380.278 171.001 341.999 132.721 341.999 85.5012L427.499 85.5012Z" fill="#1D81C4"/>
<path d="M427.499 0.00133499L427.499 85.5012C380.278 85.5012 341.999 47.2216 341.999 0.00135772L427.499 0.00133499Z" fill="#1D81C4"/>
<path d="M512.998 85.5012L427.499 85.5012C427.499 38.2809 465.778 0.00133164 512.998 0.00132751L512.998 85.5012Z" fill="#1D81C4"/>
<path d="M427.499 85.5012L512.998 85.5012C512.998 132.721 474.719 171.001 427.499 171.001L427.499 85.5012Z" fill="#1D81C4"/>
<path d="M512.998 85.5008L512.998 0.000976563C560.219 0.000974498 598.498 38.2806 598.498 85.5008H512.998Z" fill="#F37E2E"/>
<path d="M598.498 85.5008V0.000976563C645.718 0.000974498 683.998 38.2806 683.998 85.5008H598.498Z" fill="#F37E2E"/>
<path d="M598.498 85.5008H683.998C683.998 132.721 645.718 171.001 598.498 171.001V85.5008Z" fill="#F37E2E"/>
<path d="M512.998 85.5008H598.498C598.498 132.721 560.219 171.001 512.998 171.001V85.5008Z" fill="#F37E2E"/>
<path d="M769.5 85.5002L769.5 171C722.28 171 684 132.72 684 85.5002L769.5 85.5002Z" fill="#D12129"/>
<path d="M769.5 0.000347215L855 0.000343478C855 47.2206 816.72 85.5002 769.5 85.5002L769.5 0.000347215Z" fill="#D12129"/>
<path d="M769.5 171L769.5 85.5002C816.72 85.5002 855 123.78 855 171L769.5 171Z" fill="#D12129"/>
<path d="M769.5 85.5002L684 85.5002C684 38.2799 722.28 0.000349279 769.5 0.000347215L769.5 85.5002Z" fill="#D12129"/>
</g>
</svg>
